<?xml version="1.0" standalone="no"?>
<!DOCTYPE svg PUBLIC "-//W3C//DTD SVG 20010904//EN"
 "http://www.w3.org/TR/2001/REC-SVG-20010904/DTD/svg10.dtd">
<svg version="1.0" xmlns="http://www.w3.org/2000/svg"
 width="565.000000pt" height="565.000000pt" viewBox="0 0 565.000000 565.000000"
 preserveAspectRatio="xMidYMid meet">
<metadata>
Created by potrace 1.11, written by Peter Selinger 2001-2013
</metadata>
<g transform="translate(0.000000,565.000000) scale(0.100000,-0.100000)"
fill="#000000" stroke="none">
<path d="M3673 5226 c-35 -5 -63 -13 -63 -17 0 -5 -9 -9 -20 -9 -34 0 -99 -38
-150 -89 -45 -44 -87 -107 -82 -123 1 -5 -2 -8 -7 -8 -8 0 -15 -18 -29 -75 -6
-25 -7 -170 -1 -207 2 -16 7 -28 12 -28 4 0 7 -9 7 -20 0 -11 5 -20 11 -20 5
0 8 -4 5 -8 -7 -12 23 -55 78 -112 46 -48 139 -102 201 -117 39 -9 141 -10
183 -1 50 10 132 41 132 50 0 4 6 8 13 8 24 0 113 97 144 157 30 57 57 153 56
203 -2 100 -53 215 -128 294 -49 50 -149 111 -166 100 -5 -3 -9 0 -9 5 0 6
-10 11 -23 11 -13 0 -27 3 -30 6 -10 10 -64 10 -134 0z"/>
<path d="M2876 4561 c-4 -6 -19 -9 -34 -6 -14 2 -32 -1 -39 -7 -7 -6 -13 -7
-13 -4 0 4 -26 -7 -58 -24 -81 -43 -988 -950 -1025 -1025 -31 -64 -52 -173
-41 -222 4 -21 6 -43 5 -50 -1 -6 12 -40 29 -76 31 -66 107 -151 156 -177 16
-8 38 -23 48 -32 11 -10 23 -18 27 -18 8 0 256 -150 301 -181 14 -11 28 -19
31 -19 6 0 181 -106 270 -163 31 -20 61 -37 66 -37 5 0 12 -7 15 -16 3 -9 6
-269 6 -579 0 -438 3 -565 13 -572 14 -12 396 -12 415 0 9 6 12 168 12 752 l0
744 -22 21 c-13 12 -45 37 -73 57 -67 46 -102 72 -244 181 -67 50 -124 92
-126 92 -3 0 -13 8 -23 18 -18 18 -17 21 50 88 37 38 68 72 68 76 0 5 4 8 9 8
10 0 141 131 141 141 0 4 9 10 19 14 11 3 23 15 26 26 4 10 12 19 19 19 7 0
19 10 26 23 7 12 41 48 74 79 l62 57 44 -67 c25 -37 53 -75 63 -86 9 -11 17
-24 17 -29 0 -5 10 -22 23 -37 12 -15 29 -37 37 -50 8 -12 27 -40 43 -61 15
-21 27 -43 27 -48 0 -5 3 -11 8 -13 4 -1 29 -34 56 -73 27 -38 56 -77 65 -86
14 -13 74 -15 491 -15 261 1 480 4 486 8 8 5 11 73 11 216 l0 209 -351 1
c-419 0 -399 0 -391 12 3 6 2 10 -4 10 -5 0 -13 9 -16 20 -3 11 -12 26 -18 33
-7 7 -20 28 -31 47 -42 78 -71 128 -103 178 -18 29 -33 54 -33 56 0 3 -25 45
-55 94 -30 50 -55 92 -55 95 0 9 -65 112 -73 115 -4 2 -5 8 -1 13 3 5 0 9 -5
9 -6 0 -11 5 -11 11 0 30 -134 190 -168 200 -4 1 -27 11 -51 22 -24 10 -60 21
-80 23 -20 2 -52 7 -72 10 -22 4 -39 2 -43 -5z"/>
<path d="M1057 2739 c-7 -4 -38 -10 -69 -13 -32 -4 -60 -12 -64 -17 -3 -5 -10
-7 -15 -3 -5 3 -16 0 -24 -6 -8 -7 -15 -10 -15 -7 0 9 -212 -81 -230 -98 -9
-8 -20 -15 -24 -15 -7 0 -76 -47 -124 -85 -41 -32 -144 -139 -188 -195 -60
-75 -82 -110 -125 -200 -51 -107 -58 -124 -62 -147 -2 -12 -6 -26 -10 -29 -4
-4 -7 -17 -7 -29 0 -12 -3 -25 -7 -29 -4 -3 -9 -28 -11 -53 -2 -26 -7 -54 -11
-63 -8 -16 -7 -306 1 -330 3 -8 13 -51 21 -95 23 -111 50 -193 69 -206 5 -3 8
-10 7 -15 -4 -13 33 -84 43 -84 4 0 8 -9 8 -19 0 -11 3 -21 8 -23 4 -1 25 -30
47 -63 52 -78 204 -230 280 -280 97 -64 231 -129 320 -155 22 -6 47 -14 55
-17 8 -3 26 -7 40 -9 14 -2 43 -7 65 -11 41 -9 317 -8 370 0 25 5 115 26 175
41 28 7 145 60 180 81 19 11 46 26 60 33 93 47 247 191 334 311 60 84 148 249
140 263 -3 4 -1 8 4 8 7 0 30 73 48 155 16 76 29 191 28 255 -1 84 -13 210
-21 223 -3 4 -6 18 -8 30 -7 47 -38 152 -47 158 -5 3 -8 10 -6 15 5 20 -100
206 -167 293 -24 32 -173 178 -204 201 -19 14 -40 31 -47 38 -7 6 -15 12 -17
12 -3 0 -35 18 -72 39 -58 34 -154 77 -215 96 -47 15 -104 28 -149 36 -64 12
-346 17 -364 8z m336 -378 c15 -6 31 -10 35 -10 7 1 11 0 30 -6 4 -2 18 -6 32
-11 88 -28 237 -128 303 -205 99 -115 120 -151 184 -329 3 -8 7 -28 9 -44 3
-17 8 -46 13 -65 11 -44 6 -204 -8 -250 -6 -19 -8 -37 -6 -42 3 -4 1 -10 -5
-14 -5 -3 -10 -15 -10 -27 0 -25 -81 -192 -112 -232 -86 -109 -193 -201 -283
-243 -22 -10 -42 -21 -45 -25 -3 -4 -15 -9 -25 -11 -32 -6 -108 -28 -130 -39
-12 -5 -33 -7 -48 -4 -15 2 -29 1 -31 -2 -4 -6 -142 -8 -156 -2 -3 1 -21 2
-40 2 -19 0 -41 5 -47 10 -7 6 -20 8 -28 4 -8 -3 -15 -2 -15 3 0 8 -56 25 -72
22 -5 0 -8 4 -8 11 0 6 -3 9 -6 5 -7 -7 -85 32 -96 47 -4 6 -8 7 -8 3 0 -9
-75 42 -128 88 -67 57 -195 234 -207 285 -8 32 -38 130 -46 145 -10 22 -9 17
-10 165 -1 111 1 121 26 215 18 69 78 197 100 215 8 7 15 16 15 21 0 10 11 24
82 101 28 31 55 55 60 52 4 -3 8 -1 8 5 0 8 132 101 143 101 3 0 26 10 53 22
27 12 56 23 64 25 149 34 187 38 285 31 55 -4 113 -11 128 -17z"/>
<path d="M4260 2739 c0 -4 -21 -9 -47 -12 -43 -5 -79 -12 -93 -17 -3 -1 -9 -3
-15 -4 -5 -1 -23 -7 -38 -14 -16 -7 -34 -12 -41 -12 -6 0 -17 -5 -24 -12 -7
-7 -12 -8 -12 -4 0 4 -15 -1 -32 -12 -18 -10 -49 -25 -68 -33 -19 -7 -39 -17
-45 -22 -5 -4 -39 -27 -75 -50 -73 -46 -242 -209 -286 -276 -65 -98 -127 -215
-127 -238 0 -7 -4 -13 -9 -13 -4 0 -8 -8 -8 -18 0 -10 -5 -23 -12 -30 -7 -7
-9 -12 -5 -12 4 0 1 -12 -6 -27 -8 -16 -13 -36 -12 -45 2 -10 -1 -20 -6 -24
-5 -3 -9 -18 -9 -33 0 -15 -3 -31 -7 -34 -8 -9 -16 -104 -17 -207 -1 -101 13
-222 31 -270 3 -8 7 -22 8 -30 3 -26 37 -124 48 -137 5 -7 7 -13 3 -13 -4 0 1
-11 10 -25 9 -14 13 -25 9 -25 -3 0 3 -13 14 -29 12 -16 21 -32 21 -35 0 -11
102 -159 134 -195 94 -103 235 -221 266 -221 5 0 10 -3 10 -7 0 -9 119 -70
196 -102 44 -18 83 -29 159 -46 101 -23 424 -27 478 -6 16 6 33 9 38 5 5 -3 9
-1 9 3 0 5 24 14 53 21 30 7 72 21 95 32 23 11 47 20 55 20 8 0 20 7 27 15 7
8 18 15 24 15 11 0 150 86 182 112 101 84 246 252 282 325 9 18 19 33 24 33 4
0 8 6 8 13 0 8 14 41 30 75 17 34 30 66 30 72 0 5 5 21 11 37 7 15 13 35 14
43 2 8 8 31 15 50 6 19 13 62 16 95 2 33 8 76 11 95 10 53 11 123 2 141 -4 8
-9 50 -11 92 -1 42 -7 77 -12 77 -5 0 -7 3 -4 6 4 3 2 20 -4 37 -5 18 -10 37
-11 42 -2 6 -5 15 -8 20 -4 6 -9 23 -13 40 -7 27 -28 79 -59 145 -18 40 -88
151 -122 194 -60 78 -230 236 -254 236 -6 0 -11 4 -11 9 0 5 -17 17 -37 26
-21 10 -40 21 -43 24 -8 11 -118 61 -190 87 -64 23 -92 30 -160 40 -19 3 -42
8 -50 11 -21 8 -330 9 -330 2z m295 -370 c28 -5 59 -12 70 -14 11 -2 21 -4 23
-5 1 -2 7 -4 12 -5 6 -1 13 -4 18 -5 4 -2 12 -4 17 -5 19 -3 70 -30 77 -40 4
-5 8 -6 8 -2 0 5 13 -1 29 -12 16 -12 34 -21 40 -21 6 0 11 -4 11 -8 0 -4 14
-16 31 -26 30 -18 59 -45 135 -127 43 -46 124 -180 124 -204 0 -8 4 -16 9 -19
9 -6 41 -111 47 -156 4 -33 4 -228 0 -260 -2 -14 -9 -43 -15 -65 -6 -22 -11
-44 -12 -50 -5 -25 -61 -139 -94 -191 -51 -79 -171 -195 -253 -244 -38 -22
-74 -40 -80 -40 -7 0 -12 -5 -12 -12 0 -6 -3 -9 -6 -6 -3 3 -30 -3 -60 -13
-29 -11 -62 -20 -71 -22 -10 -1 -22 -5 -28 -8 -27 -16 -284 -14 -310 2 -5 4
-28 10 -49 13 -35 7 -65 18 -156 59 -32 15 -115 70 -135 91 -9 9 -22 19 -29
23 -10 7 -108 122 -134 158 -11 15 -73 134 -72 137 1 2 -4 17 -11 33 -7 17
-11 34 -10 38 0 4 -3 17 -9 27 -32 59 -30 343 2 403 6 12 10 22 8 22 -8 0 26
85 56 144 107 203 303 353 524 402 30 6 65 14 77 18 32 8 168 3 228 -10z"/>
</g>
</svg>
